HIERARCHY
ROOT Hips
{
	OFFSET 0.00 0.00 0.00
	CHANNELS 6 Xposition Yposition Zposition Xrotation Yrotation Zrotation
	JOINT Spine
	{
		OFFSET 0.00000 7.06766 0.00000
		CHANNELS 3 Xrotation Yrotation Zrotation
		JOINT Head
		{
			OFFSET 0.00000 15.03989 0.00000
			CHANNELS 3 Xrotation Yrotation Zrotation
			End Site
			{
				OFFSET 0.00000 4.52755 0.00000
			}
		}
		JOINT LeftShoulder
		{
			OFFSET 0.00000 10.53037 0.00000
			CHANNELS 3 Xrotation Yrotation Zrotation
			JOINT LeftArm
			{
				OFFSET 7.02886 0.00000 0.00000
				CHANNELS 3 Xrotation Yrotation Zrotation
				JOINT LeftForeArm
				{
					OFFSET 10.79770 0.00000 0.00000
					CHANNELS 3 Yrotation Zrotation Xrotation
					JOINT LeftHand
					{
						OFFSET 7.90744 0.00000 0.00000
						CHANNELS 3 Xrotation Yrotation Zrotation
						JOINT LeftHandThumb1
						{
							OFFSET 0.00000 0.00000 0.00000
							CHANNELS 3 Xrotation Zrotation Yrotation
							End Site
							{
								OFFSET 0.00000 0.00000 3.93700
							}
						}
						End Site
						{
							OFFSET 3.93700 0.00000 0.00000
						}
					}
				}
			}
		}
		JOINT RightShoulder
		{
			OFFSET 0.00000 10.53037 0.00000
			CHANNELS 3 Xrotation Yrotation Zrotation
			JOINT RightArm
			{
				OFFSET -7.02886 0.00000 0.00000
				CHANNELS 3 Xrotation Yrotation Zrotation
				JOINT RightForeArm
				{
					OFFSET -10.79770 0.00000 0.00000
					CHANNELS 3 Yrotation Zrotation Xrotation
					JOINT RightHand
					{
						OFFSET -7.90744 0.00000 0.00000
						CHANNELS 3 Xrotation Yrotation Zrotation
						JOINT RightHandThumb1
						{
							OFFSET 0.00000 0.00000 0.00000
							CHANNELS 3 Xrotation Zrotation Yrotation
							End Site
							{
								OFFSET 0.00000 0.00000 3.93700
							}
						}
						End Site
						{
							OFFSET -3.93700 0.00000 0.00000
						}
					}
				}
			}
		}
	}
	JOINT LeftUpLeg
	{
		OFFSET 4.01300 0.00000 0.00000
		CHANNELS 3 Xrotation Yrotation Zrotation
		JOINT LeftLeg
		{
			OFFSET 0.00000 -16.89976 0.00000
			CHANNELS 3 Xrotation Yrotation Zrotation
			JOINT LeftFoot
			{
				OFFSET 0.00000 -17.38918 0.00000
				CHANNELS 3 Xrotation Yrotation Zrotation
				JOINT LeftToeBase
				{
					OFFSET 0.00000 -1.27456 4.75673
					CHANNELS 3 Xrotation Yrotation Zrotation
					End Site
					{
						OFFSET 0.00000 0.00000 2.95275
					}
				}
			}
		}
	}
	JOINT RightUpLeg
	{
		OFFSET -4.01300 0.00000 0.00000
		CHANNELS 3 Xrotation Yrotation Zrotation
		JOINT RightLeg
		{
			OFFSET 0.00000 -16.89976 0.00000
			CHANNELS 3 Xrotation Yrotation Zrotation
			JOINT RightFoot
			{
				OFFSET 0.00000 -17.38918 0.00000
				CHANNELS 3 Xrotation Yrotation Zrotation
				JOINT RightToeBase
				{
					OFFSET 0.00000 -1.27456 4.75673
					CHANNELS 3 Xrotation Yrotation Zrotation
					End Site
					{
						OFFSET 0.00000 0.00000 2.95275
					}
				}
			}
		}
	}
}
MOTION
Frames: 7
Frame Time: 0.008333
 17.7047 8.4472 -20.8687 172.2078 32.2045 -159.0000 40.4496 -21.0495 3.4112 10.7148 -17.6310 9.3755 -27.7842 -14.9894 6.9452 -19.5420 -49.5160 -104.3986 -26.3694 -0.0000 20.0551 -4.4985 11.0827 22.2586 33.1476 -0.0000 26.2537 14.0495 -0.2066 16.3035 -15.6531 23.7863 63.5460 36.1331 0.0000 30.9411 -0.4552 -1.3124 -19.1298 32.8623 0.0000 -24.3270 20.8730 3.7196 38.3136 40.1842 0.0000 -0.0000 -3.0830 51.4331 16.4036 24.1490 -0.0000 0.0000 -95.4526 -0.4163 -40.2367 -5.2744 -0.0000 0.0000 17.8336 -41.8506 -6.2948 30.8946 0.0000 -0.0000
 17.7016 8.4577 -20.8711 172.1695 32.2126 -159.0593 40.6221 -21.2357 3.4511 10.4670 -17.3733 9.2581 -28.0477 -15.0806 6.7250 -20.2325 -49.9927 -104.7108 -24.8314 -0.0000 20.0487 -4.4484 11.0183 22.1483 33.1476 -0.0000 26.2537 13.9201 0.0329 16.2689 -15.5504 23.9606 63.4249 36.0722 0.0000 30.8353 -0.4529 -1.3094 -19.0832 32.8623 0.0000 -24.3270 20.8392 3.7528 38.3622 40.2092 -0.0000 -0.0000 -3.1114 51.4562 16.3695 24.1670 -0.0000 -0.0000 -95.4734 -0.5432 -40.2491 -5.2812 0.0000 -0.0000 17.7568 -41.9149 -5.9610 30.9349 -0.0000 -0.0000
 17.6930 8.4677 -20.8772 172.0983 32.2467 -158.9855 40.7404 -21.4653 3.3313 10.1908 -17.0824 9.2004 -28.3105 -15.0968 6.5677 -21.2193 -50.7465 -105.2458 -23.2137 -0.0000 19.7608 -4.4193 10.9840 22.0782 33.1476 -0.0000 26.2537 13.7309 0.2661 16.2642 -15.3444 24.1357 63.2847 36.0626 0.0000 30.7864 -0.4653 -1.3506 -19.0105 32.8623 0.0000 -24.3270 20.8334 3.7542 38.2610 40.2013 -0.0000 -0.0000 -3.1289 51.5341 16.3946 24.1647 0.0000 -0.0000 -95.4431 -0.4812 -40.2192 -5.3295 0.0000 -0.0000 17.7764 -41.9399 -5.8520 31.1463 0.0000 -0.0000
 17.6891 8.4762 -20.8803 172.0225 32.2657 -158.9776 40.8748 -21.7064 3.2879 9.9381 -16.7755 9.1029 -28.5867 -15.0873 6.4625 -22.2068 -51.5815 -105.7807 -21.8455 -0.0000 18.6899 -4.3831 10.9376 21.9974 33.1476 -0.0000 26.2537 13.7533 0.5183 16.2582 -15.3276 24.5556 63.1132 35.9110 0.0000 30.4639 -0.5032 -1.3887 -19.9214 32.8623 0.0000 -24.3270 20.7844 3.7951 38.2538 40.2160 -0.0000 -0.0000 -3.1247 51.5184 16.4065 24.1237 0.0000 0.0000 -95.4687 -0.5250 -40.1831 -5.3385 0.0000 -0.0000 17.6706 -42.1085 -5.8376 31.1780 0.0000 0.0000
 17.6858 8.4852 -20.8822 171.9386 32.2594 -158.9783 41.0136 -21.9415 3.2687 9.6659 -16.4802 9.0208 -28.7114 -15.0739 6.4756 -23.2450 -52.3776 -106.2569 -20.9533 -0.0000 17.0595 -4.3427 11.2200 21.3200 33.1476 -0.0000 26.2537 13.7085 0.7812 16.2849 -15.2717 24.7816 62.9097 35.9337 0.0000 30.6189 -0.5462 -1.5736 -19.1463 32.8623 0.0000 -24.3270 20.7119 3.8194 38.2743 40.2222 0.0000 0.0000 -3.1387 51.5599 16.3962 24.1151 -0.0000 0.0000 -95.5419 -0.6230 -40.1889 -5.3684 0.0000 -0.0000 17.7118 -42.0886 -5.7945 31.3331 -0.0000 -0.0000
 17.6828 8.4926 -20.8830 171.8596 32.2442 -158.9674 41.1518 -22.1724 3.2233 9.3990 -16.2121 8.9590 -28.8017 -15.1281 6.6269 -24.0950 -52.8737 -106.7146 -20.4093 -0.0000 15.5292 -4.3256 11.1529 21.3579 33.1476 -0.0000 26.2537 13.5558 1.0258 16.2924 -15.1286 24.8851 62.7644 35.9857 0.0000 30.6642 -0.5134 -1.5324 -18.5236 32.8623 0.0000 -24.3270 20.6414 3.8250 38.2844 40.2455 -0.0000 -0.0000 -3.1417 51.5426 16.4235 24.1106 0.0000 -0.0000 -95.6071 -0.6836 -40.1951 -5.3825 0.0000 -0.0000 17.6991 -42.1409 -5.7336 31.3936 -0.0000 -0.0000
 17.6813 8.4996 -20.8848 171.7894 32.2318 -158.9669 41.3119 -22.3862 3.1651 9.1353 -15.9602 8.9230 -28.8977 -15.2565 6.8637 -24.7735 -53.3940 -107.2114 -20.2651 -0.0000 14.5440 -4.5145 11.1274 22.2502 33.1476 -0.0000 26.2537 13.4114 1.2230 16.3264 -14.9620 25.1841 62.5857 35.9315 0.0000 30.5402 -0.5264 -1.5861 -18.3621 32.8623 0.0000 -24.3270 20.5841 3.8508 38.3070 40.2247 0.0000 0.0000 -3.1500 51.5581 16.4569 24.1452 -0.0000 -0.0000 -95.6351 -0.7213 -40.1883 -5.3896 0.0000 -0.0000 17.6120 -42.2863 -5.7386 31.5003 0.0000 -0.0000
